<svg xmlns="http://www.w3.org/2000/svg" width="8.225" height="11.863" viewBox="0 0 8.225 11.863">
  <path id="number-3" d="M4.374.216a5.648,5.648,0,0,1-2.367-.45A4.715,4.715,0,0,1,.4-1.4L1.62-3.078a4.837,4.837,0,0,0,1.152.828,2.91,2.91,0,0,0,1.35.324,2.322,2.322,0,0,0,1.35-.351,1.145,1.145,0,0,0,.5-1,1.51,1.51,0,0,0-.252-.873,1.626,1.626,0,0,0-.918-.567,7.06,7.06,0,0,0-1.908-.2V-6.786a3.8,3.8,0,0,0,2.124-.423A1.312,1.312,0,0,0,5.6-8.316a1.2,1.2,0,0,0-.36-.927,1.484,1.484,0,0,0-1.044-.333,2.273,2.273,0,0,0-1.107.27,5.977,5.977,0,0,0-1.035.738L.72-10.188a6.646,6.646,0,0,1,1.674-1.071,4.741,4.741,0,0,1,1.926-.387,4.625,4.625,0,0,1,2.853.819A2.725,2.725,0,0,1,8.262-8.514,2.373,2.373,0,0,1,7.767-7,3.525,3.525,0,0,1,6.354-5.976V-5.9a3.488,3.488,0,0,1,1.629.981,2.563,2.563,0,0,1,.639,1.809A2.845,2.845,0,0,1,8.037-1.3,3.646,3.646,0,0,1,6.489-.171,5.622,5.622,0,0,1,4.374.216Z" transform="translate(-0.396 11.646)" fill="#fff"/>
</svg>
