<svg xmlns="http://www.w3.org/2000/svg" width="8.174" height="11.646" viewBox="0 0 8.174 11.646">
  <path id="number-2" d="M.666,0V-1.512Q2.124-2.9,3.249-4.023A14.033,14.033,0,0,0,5-6.093a3.219,3.219,0,0,0,.63-1.755,1.744,1.744,0,0,0-.441-1.287,1.593,1.593,0,0,0-1.179-.441,1.869,1.869,0,0,0-1.107.351,5.928,5.928,0,0,0-.927.819L.54-9.828a6.577,6.577,0,0,1,1.728-1.359,4.508,4.508,0,0,1,2.106-.459,4.156,4.156,0,0,1,1.98.45A3.286,3.286,0,0,1,7.677-9.927,3.741,3.741,0,0,1,8.154-8.01a4.146,4.146,0,0,1-.531,1.953,11.9,11.9,0,0,1-1.359,2q-.828,1-1.764,1.971.432-.054.972-.1t.936-.045h2.3V0Z" transform="translate(-0.539 11.646)" fill="#fff"/>
</svg>
