<svg xmlns="http://www.w3.org/2000/svg" width="16" height="16.85" viewBox="0 0 16 16.85">
  <path id="database-cog" d="M4,6.209C4,4.436,6.872,3,10.419,3s6.419,1.436,6.419,3.209-2.872,3.209-6.419,3.209S4,7.983,4,6.209m6.483,8.826h-.064C6.872,15.035,4,13.6,4,11.826v2.407c0,1.773,2.872,3.209,6.419,3.209h.233a5.922,5.922,0,0,1-.233-1.6,5.323,5.323,0,0,1,.064-.8m6.355-4.75V7.814c0,1.773-2.872,3.209-6.419,3.209S4,9.587,4,7.814v2.407c0,1.773,2.872,3.209,6.419,3.209h.554a5.608,5.608,0,0,1,5.063-3.209,5.323,5.323,0,0,1,.8.064m3.049,6.676c.08,0,.08.08,0,.16l-.8,1.364a.3.3,0,0,1-.241.08l-.963-.321c-.241.16-.4.241-.642.4l-.16,1.043a.173.173,0,0,1-.16.16h-1.6c-.08,0-.16-.08-.241-.16l-.16-1.043a1.747,1.747,0,0,1-.642-.4l-.963.4a.3.3,0,0,1-.241-.08l-.8-1.364c-.08-.08,0-.16.08-.241l.883-.642v-.8l-.883-.642a.3.3,0,0,1-.08-.241l.8-1.364a.3.3,0,0,1,.241-.08l.963.4c.241-.16.4-.241.642-.4l.16-1.043c0-.08.08-.16.241-.16h1.6a.173.173,0,0,1,.16.16l.16,1.043a3.252,3.252,0,0,1,.722.4l.963-.4c.08,0,.241,0,.241.08l.8,1.364c.08.08,0,.16-.08.241L19,15.517v.8l.883.642m-2.648-1.123a1.2,1.2,0,1,0-1.2,1.2A1.234,1.234,0,0,0,17.239,15.838Z" transform="translate(-4 -3)" fill="#635e72"/>
</svg>
