<svg xmlns="http://www.w3.org/2000/svg" width="15" height="13.178" viewBox="0 0 15 13.178">
  <path id="telegram-solid" d="M14.377,15.814v0l.014-.033L16.657,4.35V4.314a.776.776,0,0,0-.334-.683A.95.95,0,0,0,15.73,3.5a2.027,2.027,0,0,0-.443.091q-.092.03-.181.067l-.01,0L2.457,8.623l0,0a1.023,1.023,0,0,0-.113.046,1.716,1.716,0,0,0-.258.144.854.854,0,0,0-.42.792,1,1,0,0,0,.442.68,1.559,1.559,0,0,0,.3.166l.024.011.008,0,.005,0,2.212.745a1.349,1.349,0,0,0,.043.42l1.107,4.2a1.134,1.134,0,0,0,2.142.148l1.73-1.849,2.97,2.277.042.018a1.4,1.4,0,0,0,.752.124A1.124,1.124,0,0,0,14,16.314a1.317,1.317,0,0,0,.37-.48l.006-.013,0,0ZM5.8,11.343a.227.227,0,0,1,.1-.249l7.5-4.762s.441-.268.426,0c0,0,.079.047-.158.267S8.318,11.752,7.8,12.252a.21.21,0,0,0-.058.1l-.836,3.19L5.8,11.342Z" transform="translate(-1.657 -3.5)" fill="#635e72" fill-rule="evenodd"/>
</svg>
