<svg xmlns="http://www.w3.org/2000/svg" width="11.669" height="15" viewBox="0 0 11.669 15">
  <path id="step-final" d="M15.548,9.834a7.144,7.144,0,0,0-.642-.683c-.558-.5-1.192-.858-1.725-1.383A4.149,4.149,0,0,1,12.457,3a5.408,5.408,0,0,0-2.075,1.1A6.58,6.58,0,0,0,8.39,11.517a.7.7,0,0,1,.067.275.462.462,0,0,1-.292.417.516.516,0,0,1-.55-.1.483.483,0,0,1-.117-.142A4.171,4.171,0,0,1,7.04,7.7,5.938,5.938,0,0,0,5,12.559a6.02,6.02,0,0,0,.242,1.25,5.591,5.591,0,0,0,.592,1.442,5.831,5.831,0,0,0,4.133,2.683A6.3,6.3,0,0,0,15.023,16.6,4.936,4.936,0,0,0,16.3,11.1l-.108-.217a9.344,9.344,0,0,0-.642-1.05m-2.633,5.25a2.73,2.73,0,0,1-.917.5A2.379,2.379,0,0,1,9.581,14.9a2.312,2.312,0,0,0,1.758-1.708,4.7,4.7,0,0,0-.233-1.858,3.083,3.083,0,0,1,.142-1.717,5.047,5.047,0,0,0,.525.883c.642.833,1.65,1.2,1.867,2.333a1.284,1.284,0,0,1,.05.358A2.546,2.546,0,0,1,12.915,15.084Z" transform="translate(-4.988 -3)" fill="#635e72"/>
</svg>
